<?xml version="1.0" standalone="no"?>
<!DOCTYPE svg PUBLIC "-//W3C//DTD SVG 20010904//EN"
 "http://www.w3.org/TR/2001/REC-SVG-20010904/DTD/svg10.dtd">
<svg version="1.0" xmlns="http://www.w3.org/2000/svg"
 width="2000.000000pt" height="2000.000000pt" viewBox="0 0 2000.000000 2000.000000"
 preserveAspectRatio="xMidYMid meet">
<metadata>
Created by potrace 1.14, written by Peter Selinger 2001-2017
</metadata>
<g transform="translate(0.000000,2000.000000) scale(0.100000,-0.100000)"
fill="#000000" stroke="none">
<path d="M6662 13909 c-28 -14 -51 -36 -66 -63 -26 -44 -47 -111 -39 -120 3
-3 5 -41 5 -83 -3 -232 -3 -345 1 -350 3 -2 1 -18 -3 -34 -5 -16 -6 -29 -2
-29 4 0 6 -33 5 -72 -4 -128 -3 -259 2 -268 3 -5 1 -11 -4 -15 -7 -3 -7 -15
-1 -29 5 -13 6 -26 3 -29 -2 -3 -4 -36 -3 -74 2 -79 2 -85 0 -266 -1 -77 1
-141 3 -144 3 -2 1 -18 -3 -34 -5 -16 -6 -29 -2 -29 4 0 6 -33 5 -72 -4 -128
-3 -259 2 -268 3 -5 1 -11 -4 -15 -7 -3 -7 -15 -1 -29 5 -13 6 -26 3 -29 -2
-3 -4 -36 -3 -74 2 -79 2 -85 0 -266 -1 -77 1 -141 3 -144 3 -2 1 -18 -3 -34
-5 -16 -6 -29 -2 -29 4 0 6 -42 4 -92 -6 -231 -7 -268 -2 -268 3 0 4 -19 2
-42 -1 -24 -3 -50 -2 -58 2 -78 -2 -205 -6 -211 -3 -5 -2 -9 3 -9 4 0 7 -19 5
-42 -1 -24 -3 -50 -2 -58 2 -78 -2 -205 -6 -211 -3 -5 -2 -9 3 -9 4 0 7 -19 5
-42 -1 -24 -3 -50 -2 -58 2 -78 -2 -205 -6 -211 -3 -5 -2 -9 3 -9 4 0 7 -19 5
-42 -1 -24 -3 -49 -3 -55 2 -64 2 -182 1 -296 -1 -77 1 -141 3 -144 3 -2 1
-18 -3 -34 -5 -16 -6 -29 -2 -29 4 0 6 -33 5 -72 -4 -128 -3 -259 2 -268 3 -5
1 -11 -4 -15 -7 -3 -7 -15 -1 -29 5 -13 6 -26 3 -29 -2 -3 -4 -36 -3 -74 2
-79 2 -85 0 -266 -1 -77 1 -141 3 -144 3 -2 1 -18 -3 -34 -5 -16 -6 -29 -2
-29 4 0 6 -33 5 -72 -4 -128 -3 -259 2 -268 3 -5 1 -11 -4 -15 -7 -3 -7 -15
-1 -29 5 -13 6 -26 3 -29 -2 -3 -4 -36 -3 -74 2 -79 2 -85 0 -266 -1 -77 1
-141 3 -144 3 -2 1 -18 -3 -34 -5 -16 -6 -29 -2 -29 4 0 6 -33 5 -72 -2 -40
-2 -101 -2 -135 0 -35 0 -69 0 -75 0 -7 0 -75 -1 -151 -1 -77 1 -141 3 -144 3
-2 1 -18 -3 -34 -5 -16 -6 -29 -2 -29 4 0 6 -33 5 -72 -4 -128 -3 -259 2 -268
3 -5 1 -11 -5 -15 -6 -4 -8 -11 -4 -16 3 -6 6 -36 5 -67 -3 -144 4 -184 46
-240 79 -105 229 -83 285 44 19 45 19 78 19 3812 0 3402 -1 3771 -15 3804 -22
51 -77 104 -116 112 -52 10 -72 7 -118 -15z"/>
<path d="M12483 13255 c-49 -22 -149 -114 -227 -206 -45 -53 -203 -276 -233
-328 -15 -25 -30 -48 -33 -51 -3 -3 -28 -43 -55 -90 -28 -46 -55 -94 -62 -105
-7 -11 -15 -26 -19 -33 -4 -7 -34 -61 -67 -120 -127 -227 -343 -686 -442 -937
-15 -38 -30 -74 -33 -80 -4 -5 -7 -14 -8 -20 -1 -5 -16 -48 -34 -95 -18 -47
-33 -89 -34 -95 -2 -5 -6 -17 -9 -25 -47 -124 -135 -447 -151 -555 -4 -23 -8
-52 -11 -65 -10 -51 -19 -177 -17 -253 2 -165 54 -317 136 -399 70 -69 207
-98 362 -74 70 10 224 71 224 88 0 5 5 8 11 8 37 0 212 167 318 303 29 37 54
67 55 67 1 0 1 -28 1 -62 -3 -180 101 -342 245 -386 235 -72 532 30 755 257
48 50 72 64 62 37 -9 -22 19 -158 42 -206 22 -46 84 -120 100 -120 5 0 11 -4
13 -8 5 -12 93 -51 140 -61 125 -28 297 22 414 121 65 55 216 208 283 288 35
41 67 79 72 84 4 5 6 -7 5 -25 -4 -52 11 -117 43 -186 31 -66 39 -77 84 -123
86 -87 271 -110 432 -55 88 31 147 61 220 114 75 54 92 69 177 153 l77 77 -26
-67 c-41 -106 -41 -116 3 -156 24 -22 62 -42 103 -55 96 -30 130 -33 148 -13
8 9 67 100 130 202 207 334 333 504 489 663 181 185 307 256 446 253 55 -1 71
-6 102 -29 42 -33 54 -52 62 -104 17 -101 3 -187 -70 -423 -15 -47 -29 -96
-32 -109 -3 -14 -8 -29 -11 -34 -3 -5 -7 -52 -9 -104 -2 -75 1 -106 16 -145
54 -143 174 -210 365 -202 44 1 87 4 95 7 95 25 106 30 190 79 39 22 72 50
149 125 41 40 75 72 77 70 1 -1 4 -29 7 -62 2 -33 13 -87 23 -120 32 -99 145
-198 256 -222 56 -12 170 -7 228 10 81 24 220 115 294 193 6 7 36 38 67 70 31
33 88 96 127 142 70 80 72 82 70 50 -8 -152 106 -331 237 -372 60 -20 212 -29
221 -14 3 5 9 6 14 3 25 -16 295 104 308 137 2 4 8 8 13 8 5 0 21 10 36 23 37
31 202 195 233 232 34 42 190 276 190 287 0 5 11 26 25 48 14 22 23 40 20 40
-2 0 5 18 17 41 l21 40 -38 39 -37 38 -77 -127 c-78 -128 -159 -243 -222 -315
-65 -74 -190 -186 -208 -186 -6 0 -11 -4 -11 -8 0 -18 -148 -91 -190 -94 -3 0
-15 -4 -27 -9 -13 -5 -23 -5 -23 0 0 5 -8 7 -17 5 -28 -7 -80 31 -100 73 -13
28 -18 61 -18 121 1 81 1 83 70 220 38 75 72 139 77 140 4 2 8 7 8 11 0 5 23
47 50 95 89 154 84 202 -23 254 -34 17 -79 33 -99 37 -40 8 -59 -4 -94 -60
-10 -16 -22 -34 -27 -40 -4 -5 -36 -49 -71 -98 -136 -189 -223 -302 -294 -385
-10 -11 -30 -37 -47 -58 -36 -46 -202 -214 -263 -265 -90 -77 -230 -125 -292
-99 -48 20 -65 64 -65 170 1 118 6 145 57 295 160 479 549 930 845 982 51 9
119 6 158 -7 104 -34 144 -192 101 -396 -4 -19 0 -20 59 -17 141 7 212 76 217
208 5 158 -96 288 -273 350 -77 28 -199 36 -311 21 -152 -19 -359 -118 -533
-254 -79 -62 -228 -210 -295 -292 -25 -30 -47 -57 -50 -60 -17 -15 -122 -176
-161 -245 -53 -94 -57 -102 -108 -222 -21 -50 -44 -98 -50 -105 -6 -7 -33 -43
-60 -79 -46 -61 -160 -183 -209 -221 -45 -36 -108 -61 -167 -66 -55 -4 -64 -2
-92 22 -40 34 -52 69 -48 147 4 83 14 125 55 229 84 214 99 260 115 344 16 87
11 253 -8 272 -4 4 -7 16 -7 27 0 30 -57 130 -99 174 -41 42 -105 77 -161 88
-45 8 -160 12 -167 5 -2 -3 -8 -5 -11 -6 -47 -5 -102 -18 -102 -23 0 -4 -6 -8
-14 -8 -7 0 -43 -14 -79 -33 -157 -79 -361 -265 -548 -502 -109 -137 -102
-140 -59 25 48 184 51 202 53 313 2 69 -2 94 -13 105 -61 62 -152 69 -252 20
-103 -51 -114 -64 -121 -157 -4 -43 -9 -90 -12 -104 -2 -13 -7 -42 -11 -64 -3
-22 -9 -47 -14 -56 -4 -8 -8 -17 -7 -20 1 -14 -29 -121 -45 -160 -11 -25 -49
-90 -86 -145 -81 -122 -67 -104 -152 -203 -61 -71 -103 -109 -212 -198 -34
-27 -98 -64 -98 -57 0 5 -4 3 -8 -2 -14 -20 -67 -38 -122 -42 -43 -3 -62 1
-88 17 -43 27 -74 97 -74 165 0 89 28 158 156 384 125 221 130 234 107 293
-17 45 -231 128 -231 90 0 -8 -61 -94 -144 -204 -20 -26 -36 -52 -36 -58 0 -5
-4 -10 -9 -10 -4 0 -21 -19 -36 -42 -38 -57 -195 -259 -217 -279 -10 -9 -18
-20 -18 -24 0 -4 -19 -28 -42 -53 -218 -233 -328 -317 -446 -337 -75 -12 -134
23 -148 88 -6 27 -6 135 0 162 2 11 7 39 11 63 24 145 135 405 252 590 80 126
310 391 326 375 4 -3 7 -1 7 5 0 13 107 91 169 122 97 49 205 65 287 42 111
-32 151 -180 111 -406 -2 -10 57 -12 108 -3 116 20 175 110 162 247 -12 139
-112 251 -271 305 -135 46 -364 31 -506 -32 -19 -9 -37 -17 -40 -17 -8 -2
-184 -99 -195 -108 -5 -4 -44 -34 -85 -65 -41 -31 -80 -61 -86 -67 -6 -6 -31
-30 -55 -52 -124 -117 -293 -325 -345 -425 -9 -19 -20 -36 -24 -39 -11 -7
-116 -229 -130 -275 -28 -88 -187 -272 -296 -341 -16 -10 -31 -21 -34 -24 -12
-13 -121 -60 -159 -69 -23 -5 -68 -8 -100 -6 -152 8 -205 86 -196 290 2 55 9
118 15 140 6 22 12 47 14 55 19 75 156 367 179 382 7 4 8 8 4 8 -5 0 1 13 12
29 12 16 21 34 21 39 0 6 3 12 8 14 4 2 34 48 66 103 33 55 70 116 83 136 13
19 23 39 23 44 0 5 6 16 14 24 7 9 23 43 34 77 31 92 13 152 -55 181 -117 48
-256 -42 -397 -257 -68 -103 -166 -299 -211 -420 -15 -41 -31 -84 -35 -95 -11
-26 -34 -99 -32 -102 8 -17 -118 -253 -140 -261 -4 -2 -8 -8 -8 -13 0 -22
-118 -169 -200 -249 -101 -99 -172 -139 -260 -147 -122 -11 -188 55 -219 221
-7 41 -6 221 3 301 4 37 17 123 23 150 2 11 6 34 7 50 7 60 18 81 69 120 86
68 275 261 347 354 14 18 30 38 36 44 5 7 40 53 77 102 37 50 70 95 74 100 24
31 113 168 113 174 0 3 11 19 25 34 14 15 23 27 21 27 -3 0 13 30 36 68 57 93
108 184 115 205 3 9 9 17 14 17 5 0 9 9 9 19 0 11 4 22 9 26 15 8 185 372 207
440 2 6 20 57 40 115 70 197 92 310 89 440 -2 123 -19 190 -71 277 -46 78 -93
95 -171 58z m50 -409 c5 -13 2 -66 -8 -111 -12 -60 -54 -206 -65 -230 -5 -11
-24 -58 -41 -105 -42 -112 -158 -364 -170 -368 -5 -2 -9 -9 -9 -15 0 -15 -43
-101 -52 -105 -5 -2 -8 -8 -8 -14 0 -26 -310 -528 -332 -536 -4 -2 -8 -9 -8
-15 0 -7 -11 -24 -25 -39 -14 -15 -25 -30 -25 -33 0 -3 -4 -11 -10 -18 -5 -7
-45 -55 -87 -107 -83 -102 -155 -182 -159 -177 -5 4 90 283 117 342 4 11 18
45 30 75 11 30 27 69 34 85 7 17 34 80 60 140 55 131 305 639 317 643 4 2 8 8
8 13 0 5 18 39 40 75 22 36 40 69 40 72 0 3 11 20 25 38 14 18 25 35 25 39 0
24 184 272 243 328 44 41 52 44 60 23z"/>
<path d="M8660 13267 c-3 -3 -24 -7 -47 -11 -45 -6 -147 -33 -173 -46 -8 -5
-37 -19 -65 -31 -27 -13 -51 -27 -53 -31 -2 -5 -8 -8 -14 -8 -6 0 -26 -11 -44
-25 -18 -14 -35 -25 -38 -25 -20 0 -183 -163 -237 -236 -42 -57 -112 -191
-124 -239 -5 -16 -9 -34 -11 -40 -14 -49 -17 -72 -19 -152 -4 -123 24 -202 97
-276 33 -34 123 -76 175 -83 61 -7 113 -11 113 -7 0 1 -9 35 -19 75 -42 155
-43 259 -4 413 51 204 118 340 218 442 40 40 80 73 89 73 9 0 16 4 16 8 0 5 6
9 13 10 6 0 32 6 57 12 54 14 136 8 176 -13 54 -28 114 -112 128 -178 3 -13 8
-35 11 -49 19 -78 9 -365 -19 -534 -15 -89 -54 -256 -92 -401 -34 -127 -50
-180 -99 -335 -13 -41 -47 -149 -75 -240 -29 -91 -63 -199 -76 -240 -55 -169
-64 -200 -118 -410 -33 -129 -40 -162 -52 -239 -2 -19 -6 -37 -8 -40 -8 -12
-20 -180 -19 -276 0 -280 77 -447 275 -600 24 -18 78 -46 78 -40 0 3 13 -1 29
-9 88 -46 284 -60 455 -32 93 16 275 93 323 138 13 12 23 19 23 15 0 -7 76 60
139 124 43 43 82 87 149 169 37 45 145 215 168 263 16 34 39 53 29 25 -6 -19
-16 -141 -20 -250 -4 -121 13 -210 60 -305 117 -238 333 -309 580 -188 75 36
144 89 133 101 -4 4 -29 8 -55 10 -27 2 -59 6 -73 9 -14 4 -34 8 -46 10 -32 5
-102 43 -133 73 -85 82 -116 263 -97 572 4 63 9 124 12 135 3 11 6 40 8 65 4
43 30 208 41 260 3 14 7 36 9 50 3 21 30 153 41 200 2 8 10 47 19 85 8 39 31
135 51 215 20 80 39 155 41 168 3 13 11 42 19 65 11 36 31 106 40 142 1 6 5
17 8 25 3 8 15 49 27 90 12 41 24 82 27 90 3 8 7 22 9 30 2 8 22 69 44 135 23
66 42 125 44 130 5 22 39 122 51 150 7 17 33 89 59 160 26 72 51 139 56 150 5
11 23 56 41 100 17 44 35 86 41 93 6 6 8 12 5 12 -7 0 126 267 152 305 l20 29
-37 34 c-78 71 -189 132 -242 132 -37 0 -87 -36 -131 -94 -32 -41 -139 -243
-139 -261 0 -3 -8 -25 -19 -48 -28 -63 -66 -169 -106 -292 -20 -60 -39 -117
-42 -125 -3 -8 -7 -20 -9 -27 -3 -14 -40 -141 -57 -193 -6 -19 -12 -38 -13
-42 -1 -5 -2 -9 -4 -10 -1 -2 -3 -10 -5 -18 -17 -70 -18 -72 -35 -130 -7 -25
-14 -49 -16 -55 -1 -5 -7 -30 -15 -55 -7 -25 -14 -49 -15 -55 -9 -33 -49 -186
-74 -285 -16 -63 -41 -162 -55 -220 -15 -58 -28 -112 -30 -120 -1 -8 -5 -22
-8 -30 -5 -14 -28 -120 -29 -137 0 -5 -4 -18 -9 -31 -5 -13 -11 -35 -14 -50
-4 -22 -35 -142 -49 -187 -2 -5 -6 -23 -11 -40 -4 -16 -10 -34 -14 -40 -3 -5
-7 -18 -8 -27 -10 -63 -205 -507 -232 -528 -4 -3 -20 -27 -36 -54 -130 -226
-363 -412 -539 -431 -23 -2 -43 -5 -46 -5 -18 -6 -115 0 -161 9 -107 22 -200
111 -245 235 -22 62 -23 64 -40 165 -10 61 -5 220 11 321 3 19 6 42 7 50 0 8
7 47 15 85 20 98 19 94 37 160 9 33 19 68 21 79 6 24 34 126 41 146 3 8 5 16
5 17 0 2 4 15 9 30 47 155 72 240 74 248 1 6 4 15 8 20 3 6 13 35 21 65 9 30
28 93 42 140 15 47 28 90 29 95 5 21 39 133 68 229 16 54 31 106 33 115 2 9
15 61 30 116 15 55 28 105 29 110 3 13 28 126 31 145 2 8 4 15 5 15 1 0 3 9 4
20 3 21 17 110 22 135 19 97 18 408 -2 441 -2 3 -6 21 -9 40 -10 54 -70 170
-115 222 -46 52 -150 108 -233 125 -48 10 -259 17 -267 9z"/>
<path d="M1935 12845 c-115 -25 -203 -76 -301 -173 l-62 -61 744 -743 c409
-409 746 -745 749 -747 3 -2 188 179 411 402 l406 406 -43 12 c-24 7 -47 13
-51 15 -5 1 -9 2 -10 4 -2 1 -10 3 -18 5 -8 2 -33 9 -55 15 -98 25 -171 30
-255 16 -77 -13 -255 -2 -304 18 -18 8 -182 163 -382 363 -346 346 -397 391
-484 431 -99 46 -236 60 -345 37z m258 -249 c48 -23 116 -86 422 -392 390
-389 402 -399 525 -424 30 -5 95 -13 144 -15 49 -3 92 -7 94 -10 3 -2 -66 -75
-153 -161 l-158 -156 -578 578 c-318 318 -576 580 -574 582 16 16 92 30 150
28 52 -2 85 -10 128 -30z"/>
<path d="M13191 12308 c-93 -16 -187 -65 -242 -125 -55 -60 -70 -159 -34 -220
22 -37 100 -78 166 -86 102 -14 242 47 312 137 44 54 54 81 55 143 1 120 -101
180 -257 151z"/>
<path d="M489 11989 c-32 -23 -440 -433 -451 -453 -16 -29 -18 -58 -4 -90 16
-38 242 -265 272 -272 63 -16 129 23 140 83 9 48 -10 85 -75 146 -31 29 -61
59 -68 68 -10 13 8 36 115 142 l128 128 78 -77 c76 -75 80 -78 128 -78 44 -1
53 3 79 32 31 34 39 85 19 122 -14 27 -225 237 -252 252 -34 18 -82 17 -109
-3z"/>
<path d="M3235 11143 c-383 -383 -707 -710 -721 -726 -46 -54 -27 -134 38
-165 80 -37 45 -67 741 627 351 350 639 637 640 638 1 1 85 -81 186 -181 l183
-183 -650 -650 c-707 -707 -684 -680 -648 -755 26 -53 87 -79 141 -58 27 10
1481 1457 1474 1465 -12 14 -665 667 -675 676 -8 7 -207 -186 -709 -688z"/>
<path d="M919 11545 c-19 -14 -43 -36 -55 -48 -11 -12 -62 -60 -113 -107 -92
-84 -180 -167 -255 -238 -47 -45 -66 -86 -56 -122 17 -60 53 -90 108 -90 35 0
73 25 148 97 34 32 114 108 179 168 180 168 215 204 216 223 0 9 2 24 4 33 5
27 -26 79 -56 95 -41 21 -81 17 -120 -11z"/>
<path d="M1185 11339 c-16 -5 -60 -37 -97 -71 -37 -35 -119 -112 -184 -173
-64 -60 -141 -132 -170 -159 -66 -59 -84 -108 -59 -159 20 -42 62 -67 104 -62
40 5 64 20 117 72 22 21 96 90 164 153 250 233 260 244 260 284 0 32 -23 96
-34 96 -2 0 -19 6 -37 14 -23 9 -44 10 -64 5z"/>
<path d="M3839 11241 c-16 -16 -30 -37 -30 -45 -1 -9 -2 -22 -3 -28 -3 -23 26
-76 48 -87 85 -45 164 10 157 110 0 9 -14 31 -30 48 -40 43 -100 44 -142 2z"/>
<path d="M1374 11074 c-31 -29 -35 -37 -33 -79 l3 -46 1530 -1533 1531 -1532
61 -187 c33 -103 58 -187 54 -187 -7 0 -61 16 -90 27 -8 3 -19 7 -25 8 -5 2
-66 22 -135 44 l-125 42 -1540 1539 c-848 847 -1551 1542 -1565 1546 -36 11
-80 5 -99 -14 -44 -44 -56 -97 -32 -140 11 -20 3123 -3131 3130 -3129 7 1 75
-20 106 -33 11 -5 38 -14 60 -20 36 -11 124 -40 255 -86 25 -9 50 -17 55 -18
17 -4 89 -27 110 -36 46 -18 240 -78 243 -75 2 2 -38 129 -89 282 -51 153 -94
281 -95 286 -1 4 -3 9 -4 12 -1 3 -3 8 -4 13 -1 4 -17 52 -36 107 -19 55 -35
102 -35 105 -1 3 -6 14 -10 24 -5 11 -704 716 -1554 1567 l-1546 1546 -43 0
c-36 0 -50 -6 -78 -33z"/>
<path d="M4309 10701 c-217 -218 -398 -401 -402 -407 -4 -7 302 -319 738 -755
410 -409 747 -746 750 -748 5 -5 106 97 138 139 84 114 127 288 102 420 -4 19
-8 42 -9 50 -12 65 -49 140 -97 202 -19 24 -190 199 -380 390 -246 246 -349
356 -354 376 -20 94 -23 200 -10 344 8 80 -3 162 -32 248 -8 25 -17 56 -19 69
-3 13 -10 34 -17 46 -11 20 -35 -2 -408 -374z m237 -148 c7 -97 13 -168 15
-170 2 -4 4 -13 13 -61 16 -87 49 -127 411 -488 195 -195 366 -374 380 -399
30 -50 51 -125 49 -170 -3 -65 -20 -135 -33 -135 -3 0 -266 260 -584 578
l-578 578 158 160 c87 88 160 158 162 157 2 -1 6 -24 7 -50z"/>
<path d="M1693 9585 c-16 -7 -351 -335 -746 -730 l-718 -719 344 -344 345
-345 715 714 c392 393 719 724 725 736 32 60 -5 144 -71 159 -37 9 -71 6 -75
-7 -2 -5 -8 -9 -14 -9 -5 0 -295 -286 -645 -635 l-635 -636 -184 183 -183 183
101 102 101 102 42 -42 c75 -76 93 -89 131 -92 68 -7 124 43 124 110 0 37 -16
62 -80 127 l-57 57 106 106 106 105 60 -60 c33 -32 73 -64 88 -69 54 -21 131
17 142 70 13 58 -2 95 -65 156 -33 32 -60 60 -60 63 0 10 172 180 181 180 5 0
36 -27 70 -60 33 -33 66 -61 72 -62 81 -10 116 4 145 59 29 53 9 103 -67 178
-28 27 -51 52 -51 56 0 3 41 46 91 95 49 49 95 97 100 107 31 55 9 133 -44
157 -41 18 -60 19 -94 5z"/>
<path d="M10148 8457 c-4 -10 -2 -1327 1 -1350 1 -10 573 -3 611 7 14 4 35 9
48 12 44 9 138 48 177 73 56 36 132 108 167 159 28 40 75 143 84 184 12 54 15
67 20 108 16 108 7 268 -20 375 -16 64 -73 183 -101 211 -7 8 -22 24 -32 37
-59 73 -203 152 -323 177 -87 18 -627 24 -632 7z m282 -101 c0 -5 6 -4 13 1
32 25 353 -6 392 -37 6 -5 12 -8 15 -7 17 2 89 -43 134 -84 60 -55 111 -147
132 -241 13 -57 18 -110 18 -208 0 -135 -11 -200 -46 -284 -68 -162 -188 -250
-383 -282 -42 -7 -399 -12 -425 -6 -13 3 -15 74 -15 570 1 312 4 572 7 577 8
12 158 13 158 1z"/>
<path d="M13470 8365 l0 -73 71 -4 c40 -2 74 1 78 7 4 6 7 39 7 75 l-1 65 -77
2 -78 1 0 -73z"/>
<path d="M11876 8063 c-1 -2 -18 -5 -37 -7 -50 -5 -150 -46 -176 -72 -7 -7
-23 -21 -36 -31 -40 -31 -96 -122 -118 -191 -25 -82 -33 -239 -14 -318 7 -29
10 -54 8 -54 -14 0 76 -147 111 -181 44 -43 120 -87 176 -101 19 -5 44 -11 55
-14 27 -6 162 -6 200 1 73 14 170 54 222 93 l31 23 -17 40 c-10 21 -21 42 -24
46 -4 3 -24 -5 -44 -19 -94 -62 -186 -88 -293 -83 -89 4 -151 28 -208 80 -34
30 -75 93 -77 117 0 3 -3 10 -7 13 -6 6 -22 105 -23 140 0 6 122 11 345 11
190 1 350 2 356 3 11 1 11 105 0 164 -3 18 -8 43 -11 57 -18 93 -111 210 -200
250 -53 24 -205 47 -219 33z m170 -122 c93 -41 152 -142 158 -271 l1 -25 -298
-1 -297 -1 5 43 c7 59 50 152 88 192 35 37 99 74 137 80 13 2 26 5 27 6 12 11
138 -5 179 -23z"/>
<path d="M12763 8050 c-78 -22 -111 -41 -158 -89 -46 -47 -75 -122 -69 -177
10 -87 44 -140 129 -202 14 -11 98 -42 126 -47 106 -20 210 -49 243 -68 110
-62 99 -202 -19 -253 -50 -22 -206 -27 -272 -10 -52 14 -121 47 -166 78 -16
11 -29 19 -31 17 -1 -2 -12 -23 -24 -46 l-21 -42 44 -31 c97 -67 185 -90 336
-90 42 0 82 2 90 4 8 3 25 7 39 10 89 16 190 101 211 178 36 136 -36 252 -187
304 -44 15 -54 18 -106 29 -23 5 -78 18 -88 20 -3 1 -18 5 -35 10 -86 23 -134
66 -142 128 -15 120 74 192 231 186 68 -2 157 -25 168 -43 4 -6 8 -7 8 -3 0 5
22 -7 49 -27 l49 -36 21 40 c12 22 21 45 21 49 0 5 -21 25 -47 44 -95 70 -279
100 -400 67z"/>
<path d="M14210 8059 c-67 -13 -81 -18 -127 -41 -175 -87 -260 -319 -209 -568
3 -14 22 -57 41 -97 56 -114 150 -187 276 -214 57 -12 204 -6 222 10 7 5 17
10 22 11 43 9 116 69 158 130 17 24 17 20 14 -115 -5 -155 -19 -204 -73 -259
-91 -91 -305 -97 -474 -12 -30 15 -62 34 -71 42 -15 13 -18 13 -31 0 -8 -8
-21 -28 -28 -46 -11 -27 -11 -32 6 -46 46 -36 155 -83 229 -100 72 -15 199
-20 255 -9 14 3 35 7 48 9 44 9 117 51 155 90 44 46 72 101 94 188 3 13 6 245
8 516 1 492 1 492 -19 493 -12 0 -36 1 -54 2 -19 1 -36 -1 -38 -5 -2 -3 -5
-41 -6 -83 l-2 -76 -20 33 c-25 41 -78 91 -114 108 -15 7 -34 16 -42 20 -44
22 -158 31 -220 19z m145 -104 c52 -6 119 -40 160 -81 75 -75 108 -232 81
-391 -18 -114 -114 -217 -220 -240 -81 -17 -198 0 -246 34 -95 70 -139 156
-146 287 -10 218 87 367 256 391 25 4 47 8 49 11 2 2 7 2 10 -1 4 -2 29 -6 56
-10z"/>
<path d="M15390 8054 c-32 -7 -74 -20 -94 -29 -38 -18 -103 -77 -128 -115 -15
-24 -15 -23 -16 40 0 36 0 72 -1 80 -1 11 -14 15 -53 15 -29 0 -55 -3 -58 -7
-3 -3 -5 -215 -5 -470 l1 -463 57 -3 c31 -2 58 1 58 5 1 4 2 139 3 298 1 160
6 306 11 325 5 19 9 37 10 40 12 45 78 125 123 149 49 26 116 40 181 36 108
-5 161 -37 197 -120 16 -35 18 -82 20 -375 2 -184 3 -341 3 -348 1 -9 17 -12
59 -10 l57 3 -1 345 c0 294 -3 353 -17 402 -49 163 -208 242 -407 202z"/>
<path d="M16468 8065 c-2 -1 -21 -5 -43 -8 -214 -30 -356 -217 -358 -472 -1
-110 14 -184 49 -258 28 -59 85 -136 100 -137 6 0 18 -7 25 -16 19 -24 103
-61 164 -74 55 -11 172 -14 215 -5 14 2 39 8 55 11 42 9 144 58 178 86 l29 24
-23 46 -22 46 -31 -21 c-17 -12 -33 -25 -36 -28 -3 -3 -36 -18 -74 -34 -108
-42 -232 -41 -338 3 -58 24 -120 104 -153 197 -11 30 -22 125 -16 126 3 1 159
3 346 4 187 2 346 3 353 4 11 1 12 21 8 91 -3 50 -8 94 -10 99 -3 4 -7 20 -10
34 -9 48 -55 131 -97 175 -23 23 -45 42 -49 42 -5 0 -15 6 -22 13 -19 19 -114
46 -180 51 -31 2 -58 3 -60 1z m123 -111 c96 -27 155 -92 184 -204 6 -25 11
-58 11 -75 l-1 -30 -293 -1 c-161 0 -295 3 -297 6 -8 13 25 128 46 166 28 48
80 104 97 104 6 0 12 4 12 9 0 11 91 36 143 38 23 1 67 -5 98 -13z"/>
<path d="M17587 8064 c-2 -2 -25 -7 -52 -10 -107 -12 -194 -58 -242 -127 l-28
-40 -3 73 c-2 41 -7 77 -12 80 -4 3 -30 4 -57 2 l-49 -4 1 -466 0 -467 58 -3
c41 -2 57 1 58 10 0 7 2 150 3 318 2 268 5 310 20 345 30 65 73 112 131 140
55 27 70 31 164 40 30 3 55 6 56 7 1 2 0 24 -3 50 -3 34 -9 47 -22 51 -11 3
-21 3 -23 1z"/>
<path d="M13523 8042 c-18 -2 -33 -6 -34 -10 -1 -10 -1 -893 0 -914 1 -15 11
-18 59 -18 l58 0 0 469 0 469 -25 4 c-14 1 -41 2 -58 0z"/>
</g>
</svg>
